<!-- Simple SVG icon that can be converted to PNG -->
<svg width="512" height="512" viewBox="0 0 512 512" fill="none" xmlns="http://www.w3.org/2000/svg">
  <!-- Background circle -->
  <circle cx="256" cy="256" r="240" fill="#8b5cf6" stroke="#6d28d9" stroke-width="8"/>
  
  <!-- Robot head -->
  <rect x="176" y="176" width="160" height="120" rx="20" fill="white"/>
  
  <!-- Eyes -->
  <circle cx="216" cy="216" r="12" fill="#8b5cf6"/>
  <circle cx="296" cy="216" r="12" fill="#8b5cf6"/>
  
  <!-- Mouth -->
  <rect x="226" y="246" width="60" height="8" rx="4" fill="#8b5cf6"/>
  
  <!-- Antenna -->
  <line x1="256" y1="176" x2="256" y2="146" stroke="white" stroke-width="6" stroke-linecap="round"/>
  <circle cx="256" cy="146" r="8" fill="white"/>
  
  <!-- Phone symbol -->
  <path d="M336 336c0 8.8-7.2 16-16 16h-128c-8.8 0-16-7.2-16-16v-32c0-8.8 7.2-16 16-16h128c8.8 0 16 7.2 16 16v32z" fill="white"/>
  <path d="M192 320h128M208 336h96" stroke="#8b5cf6" stroke-width="4" stroke-linecap="round"/>
</svg>